<mxfile host="app.diagrams.net" modified="2020-09-03T20:56:39.131Z" agent="5.0 (Windows NT 10.0; Win64; x64) AppleWebKit/537.36 (KHTML, like Gecko) Chrome/84.0.4147.135 Safari/537.36" etag="NbTYnIU9YHZ8n1yDMHQ0" version="13.6.6" type="github">
  <diagram id="zHSKgXSfzCdZv82x1Zii" name="Page-1">
    <mxGraphModel dx="2513" dy="1033" grid="1" gridSize="10" guides="1" tooltips="1" connect="1" arrows="1" fold="1" page="1" pageScale="1" pageWidth="850" pageHeight="1100" math="0" shadow="0">
      <root>
        <mxCell id="0" />
        <mxCell id="1" parent="0" />
        <mxCell id="LcwuGCR-S58AGxE-9b6Q-7" value="" style="edgeStyle=orthogonalEdgeStyle;rounded=0;orthogonalLoop=1;jettySize=auto;html=1;" edge="1" parent="1" source="LcwuGCR-S58AGxE-9b6Q-8">
          <mxGeometry relative="1" as="geometry">
            <mxPoint x="125" y="280" as="targetPoint" />
          </mxGeometry>
        </mxCell>
        <mxCell id="LcwuGCR-S58AGxE-9b6Q-8" value="&lt;div style=&quot;box-sizing: border-box ; font-family: &amp;#34;segoe ui&amp;#34; , , &amp;#34;apple color emoji&amp;#34; , &amp;#34;segoe ui emoji&amp;#34; , sans-serif ; font-size: 14px&quot;&gt;&lt;div style=&quot;box-sizing: border-box ; font-family: &amp;#34;segoe ui&amp;#34; , , &amp;#34;apple color emoji&amp;#34; , &amp;#34;segoe ui emoji&amp;#34; , sans-serif ; font-size: 12px&quot;&gt;Duplicate value in the SYSTEM column of ParksGIS structures&lt;/div&gt;&lt;/div&gt;" style="rounded=0;whiteSpace=wrap;html=1;fillColor=#dae8fc;strokeColor=#6c8ebf;" vertex="1" parent="1">
          <mxGeometry x="65" y="160" width="120" height="60" as="geometry" />
        </mxCell>
        <mxCell id="LcwuGCR-S58AGxE-9b6Q-12" style="edgeStyle=orthogonalEdgeStyle;rounded=0;orthogonalLoop=1;jettySize=auto;html=1;exitX=0.5;exitY=1;exitDx=0;exitDy=0;entryX=0.5;entryY=0;entryDx=0;entryDy=0;" edge="1" parent="1" source="LcwuGCR-S58AGxE-9b6Q-14" target="LcwuGCR-S58AGxE-9b6Q-16">
          <mxGeometry relative="1" as="geometry" />
        </mxCell>
        <mxCell id="LcwuGCR-S58AGxE-9b6Q-13" style="edgeStyle=orthogonalEdgeStyle;rounded=0;orthogonalLoop=1;jettySize=auto;html=1;exitX=0.5;exitY=1;exitDx=0;exitDy=0;entryX=0.5;entryY=0;entryDx=0;entryDy=0;" edge="1" parent="1" source="LcwuGCR-S58AGxE-9b6Q-14" target="LcwuGCR-S58AGxE-9b6Q-18">
          <mxGeometry relative="1" as="geometry" />
        </mxCell>
        <mxCell id="LcwuGCR-S58AGxE-9b6Q-14" value="Are the geometries for the duplicates the same?&amp;nbsp;" style="rounded=0;whiteSpace=wrap;html=1;fillColor=#dae8fc;strokeColor=#6c8ebf;" vertex="1" parent="1">
          <mxGeometry x="65" y="280" width="120" height="60" as="geometry" />
        </mxCell>
        <mxCell id="LcwuGCR-S58AGxE-9b6Q-15" value="" style="edgeStyle=orthogonalEdgeStyle;rounded=0;orthogonalLoop=1;jettySize=auto;html=1;" edge="1" parent="1" source="LcwuGCR-S58AGxE-9b6Q-16" target="LcwuGCR-S58AGxE-9b6Q-21">
          <mxGeometry relative="1" as="geometry" />
        </mxCell>
        <mxCell id="LcwuGCR-S58AGxE-9b6Q-16" value="Yes" style="rounded=0;whiteSpace=wrap;html=1;fillColor=#dae8fc;strokeColor=#6C8EBF;" vertex="1" parent="1">
          <mxGeometry y="415" width="40" height="30" as="geometry" />
        </mxCell>
        <mxCell id="LcwuGCR-S58AGxE-9b6Q-17" value="" style="edgeStyle=orthogonalEdgeStyle;rounded=0;orthogonalLoop=1;jettySize=auto;html=1;entryX=0.5;entryY=0;entryDx=0;entryDy=0;" edge="1" parent="1" source="LcwuGCR-S58AGxE-9b6Q-18" target="LcwuGCR-S58AGxE-9b6Q-28">
          <mxGeometry relative="1" as="geometry">
            <mxPoint x="220" y="505" as="targetPoint" />
          </mxGeometry>
        </mxCell>
        <mxCell id="LcwuGCR-S58AGxE-9b6Q-18" value="No" style="rounded=0;whiteSpace=wrap;html=1;fillColor=#dae8fc;strokeColor=#6C8EBF;" vertex="1" parent="1">
          <mxGeometry x="200" y="415" width="40" height="30" as="geometry" />
        </mxCell>
        <mxCell id="LcwuGCR-S58AGxE-9b6Q-19" style="edgeStyle=orthogonalEdgeStyle;rounded=0;orthogonalLoop=1;jettySize=auto;html=1;exitX=0.5;exitY=1;exitDx=0;exitDy=0;entryX=0.5;entryY=0;entryDx=0;entryDy=0;" edge="1" parent="1" source="LcwuGCR-S58AGxE-9b6Q-21" target="LcwuGCR-S58AGxE-9b6Q-23">
          <mxGeometry relative="1" as="geometry" />
        </mxCell>
        <mxCell id="LcwuGCR-S58AGxE-9b6Q-20" style="edgeStyle=orthogonalEdgeStyle;rounded=0;orthogonalLoop=1;jettySize=auto;html=1;exitX=0.5;exitY=1;exitDx=0;exitDy=0;entryX=0.5;entryY=0;entryDx=0;entryDy=0;" edge="1" parent="1" source="LcwuGCR-S58AGxE-9b6Q-21" target="LcwuGCR-S58AGxE-9b6Q-25">
          <mxGeometry relative="1" as="geometry" />
        </mxCell>
        <mxCell id="LcwuGCR-S58AGxE-9b6Q-21" value="Is all the attribute information the same (e.g. are description and location the same)?&amp;nbsp;" style="rounded=0;whiteSpace=wrap;html=1;fillColor=#dae8fc;strokeColor=#6c8ebf;" vertex="1" parent="1">
          <mxGeometry x="-40" y="505" width="120" height="80" as="geometry" />
        </mxCell>
        <mxCell id="LcwuGCR-S58AGxE-9b6Q-22" value="" style="edgeStyle=orthogonalEdgeStyle;rounded=0;orthogonalLoop=1;jettySize=auto;html=1;" edge="1" parent="1" source="LcwuGCR-S58AGxE-9b6Q-23" target="LcwuGCR-S58AGxE-9b6Q-26">
          <mxGeometry relative="1" as="geometry" />
        </mxCell>
        <mxCell id="LcwuGCR-S58AGxE-9b6Q-23" value="Yes" style="rounded=0;whiteSpace=wrap;html=1;fillColor=#dae8fc;strokeColor=#6c8ebf;" vertex="1" parent="1">
          <mxGeometry x="-60" y="655" width="40" height="30" as="geometry" />
        </mxCell>
        <mxCell id="LcwuGCR-S58AGxE-9b6Q-24" value="" style="edgeStyle=orthogonalEdgeStyle;rounded=0;orthogonalLoop=1;jettySize=auto;html=1;" edge="1" parent="1" source="LcwuGCR-S58AGxE-9b6Q-25" target="LcwuGCR-S58AGxE-9b6Q-28">
          <mxGeometry relative="1" as="geometry" />
        </mxCell>
        <mxCell id="LcwuGCR-S58AGxE-9b6Q-25" value="No" style="rounded=0;whiteSpace=wrap;html=1;fillColor=#dae8fc;strokeColor=#6C8EBF;" vertex="1" parent="1">
          <mxGeometry x="60" y="655" width="40" height="30" as="geometry" />
        </mxCell>
        <mxCell id="LcwuGCR-S58AGxE-9b6Q-26" value="Delete duplicate record from Production Parks GIS structure_evw" style="rounded=0;whiteSpace=wrap;html=1;fillColor=#d5e8d4;strokeColor=#82b366;" vertex="1" parent="1">
          <mxGeometry x="-240" y="627.5" width="120" height="85" as="geometry" />
        </mxCell>
        <mxCell id="LcwuGCR-S58AGxE-9b6Q-27" value="" style="edgeStyle=orthogonalEdgeStyle;rounded=0;orthogonalLoop=1;jettySize=auto;html=1;" edge="1" parent="1" source="LcwuGCR-S58AGxE-9b6Q-28" target="LcwuGCR-S58AGxE-9b6Q-30">
          <mxGeometry relative="1" as="geometry" />
        </mxCell>
        <mxCell id="LcwuGCR-S58AGxE-9b6Q-28" value="Does the record exist in AMPS?" style="rounded=0;whiteSpace=wrap;html=1;fillColor=#dae8fc;strokeColor=#6c8ebf;" vertex="1" parent="1">
          <mxGeometry x="160" y="632.5" width="120" height="75" as="geometry" />
        </mxCell>
        <mxCell id="LcwuGCR-S58AGxE-9b6Q-29" value="" style="strokeWidth=2;html=1;shape=mxgraph.flowchart.annotation_2;align=left;labelPosition=right;pointerEvents=1;rotation=90;" vertex="1" parent="1">
          <mxGeometry x="200.95" y="693.39" width="44.88" height="301.79" as="geometry" />
        </mxCell>
        <mxCell id="LcwuGCR-S58AGxE-9b6Q-30" value="Does the record in GIS have a value for the gisobjid column?" style="rounded=0;whiteSpace=wrap;html=1;fillColor=#dae8fc;strokeColor=#6c8ebf;" vertex="1" parent="1">
          <mxGeometry x="160" y="755" width="120" height="75" as="geometry" />
        </mxCell>
        <mxCell id="LcwuGCR-S58AGxE-9b6Q-31" value="We want to match from Parks GIS system = AMPS obj_code &lt;i&gt;and&lt;/i&gt; Parks GIS gisobjid = AMPS obj_gisobjid" style="rounded=0;whiteSpace=wrap;html=1;" vertex="1" parent="1">
          <mxGeometry x="295.45" y="730" width="102.5" height="100" as="geometry" />
        </mxCell>
        <mxCell id="LcwuGCR-S58AGxE-9b6Q-32" value="" style="edgeStyle=orthogonalEdgeStyle;rounded=0;orthogonalLoop=1;jettySize=auto;html=1;" edge="1" parent="1" source="LcwuGCR-S58AGxE-9b6Q-33" target="LcwuGCR-S58AGxE-9b6Q-37">
          <mxGeometry relative="1" as="geometry" />
        </mxCell>
        <mxCell id="LcwuGCR-S58AGxE-9b6Q-33" value="Record returns 0 matches in AMPS" style="rounded=0;whiteSpace=wrap;html=1;fillColor=#dae8fc;strokeColor=#6c8ebf;" vertex="1" parent="1">
          <mxGeometry x="80" y="860" width="109" height="75" as="geometry" />
        </mxCell>
        <mxCell id="LcwuGCR-S58AGxE-9b6Q-34" value="" style="edgeStyle=orthogonalEdgeStyle;rounded=0;orthogonalLoop=1;jettySize=auto;html=1;" edge="1" parent="1" source="LcwuGCR-S58AGxE-9b6Q-35" target="LcwuGCR-S58AGxE-9b6Q-39">
          <mxGeometry relative="1" as="geometry" />
        </mxCell>
        <mxCell id="LcwuGCR-S58AGxE-9b6Q-35" value="Record returns 1 or more matches in AMPS" style="rounded=0;whiteSpace=wrap;html=1;fillColor=#dae8fc;strokeColor=#6c8ebf;" vertex="1" parent="1">
          <mxGeometry x="260" y="860" width="109" height="75" as="geometry" />
        </mxCell>
        <mxCell id="LcwuGCR-S58AGxE-9b6Q-36" value="This record has never been pushed from GIS to AMPS and has an incorrect value in the gisobjid column," style="rounded=0;whiteSpace=wrap;html=1;" vertex="1" parent="1">
          <mxGeometry x="-42.5" y="835" width="102.5" height="100" as="geometry" />
        </mxCell>
        <mxCell id="LcwuGCR-S58AGxE-9b6Q-37" value="Set value of gisobjids to &quot;NULL&quot; and create distinct values for the system column" style="rounded=0;whiteSpace=wrap;html=1;fillColor=#d5e8d4;strokeColor=#82b366;" vertex="1" parent="1">
          <mxGeometry x="80" y="968.3" width="109" height="75" as="geometry" />
        </mxCell>
        <mxCell id="LcwuGCR-S58AGxE-9b6Q-38" value="All systems that consume structure_evw will need to be checked." style="rounded=0;whiteSpace=wrap;html=1;" vertex="1" parent="1">
          <mxGeometry x="-42.5" y="968.3" width="102.5" height="100" as="geometry" />
        </mxCell>
        <mxCell id="LcwuGCR-S58AGxE-9b6Q-39" value="On which column(s) was/were the match(es) made?" style="rounded=0;whiteSpace=wrap;html=1;fillColor=#dae8fc;strokeColor=#6c8ebf;" vertex="1" parent="1">
          <mxGeometry x="260" y="968.3" width="109" height="75" as="geometry" />
        </mxCell>
        <mxCell id="LcwuGCR-S58AGxE-9b6Q-40" style="edgeStyle=orthogonalEdgeStyle;rounded=0;orthogonalLoop=1;jettySize=auto;html=1;exitX=0.5;exitY=1;exitDx=0;exitDy=0;" edge="1" parent="1" source="LcwuGCR-S58AGxE-9b6Q-41" target="LcwuGCR-S58AGxE-9b6Q-48">
          <mxGeometry relative="1" as="geometry" />
        </mxCell>
        <mxCell id="LcwuGCR-S58AGxE-9b6Q-41" value="obj_gisobjid" style="rounded=0;whiteSpace=wrap;html=1;fillColor=#dae8fc;strokeColor=#6c8ebf;" vertex="1" parent="1">
          <mxGeometry x="280" y="1088.3" width="69" height="30" as="geometry" />
        </mxCell>
        <mxCell id="LcwuGCR-S58AGxE-9b6Q-42" style="edgeStyle=orthogonalEdgeStyle;rounded=0;orthogonalLoop=1;jettySize=auto;html=1;entryX=0.5;entryY=0;entryDx=0;entryDy=0;" edge="1" parent="1" source="LcwuGCR-S58AGxE-9b6Q-43" target="LcwuGCR-S58AGxE-9b6Q-48">
          <mxGeometry relative="1" as="geometry" />
        </mxCell>
        <mxCell id="LcwuGCR-S58AGxE-9b6Q-43" value="obj_code" style="rounded=0;whiteSpace=wrap;html=1;fillColor=#dae8fc;strokeColor=#6c8ebf;" vertex="1" parent="1">
          <mxGeometry x="420" y="1088.3" width="69" height="30" as="geometry" />
        </mxCell>
        <mxCell id="LcwuGCR-S58AGxE-9b6Q-44" value="" style="edgeStyle=orthogonalEdgeStyle;rounded=0;orthogonalLoop=1;jettySize=auto;html=1;" edge="1" parent="1" source="LcwuGCR-S58AGxE-9b6Q-45" target="LcwuGCR-S58AGxE-9b6Q-47">
          <mxGeometry relative="1" as="geometry" />
        </mxCell>
        <mxCell id="LcwuGCR-S58AGxE-9b6Q-45" value="Both obj_gisobjid and obj_code" style="rounded=0;whiteSpace=wrap;html=1;fillColor=#dae8fc;strokeColor=#6c8ebf;" vertex="1" parent="1">
          <mxGeometry x="140" y="1088.3" width="79" height="50" as="geometry" />
        </mxCell>
        <mxCell id="LcwuGCR-S58AGxE-9b6Q-46" value="" style="strokeWidth=2;html=1;shape=mxgraph.flowchart.annotation_2;align=left;labelPosition=right;pointerEvents=1;rotation=90;" vertex="1" parent="1">
          <mxGeometry x="295.45" y="880.4799999999999" width="38.11" height="374.37" as="geometry" />
        </mxCell>
        <mxCell id="LcwuGCR-S58AGxE-9b6Q-47" value="For unmatched records: &lt;br&gt;Investigate record in additional detail and consider&lt;br&gt;setting value of the gisobjids to &quot;NULL&quot; and create distinct values for the system column" style="rounded=0;whiteSpace=wrap;html=1;fillColor=#1ba1e2;strokeColor=#006EAF;fontColor=#ffffff;" vertex="1" parent="1">
          <mxGeometry x="91" y="1170.8" width="109" height="147.5" as="geometry" />
        </mxCell>
        <mxCell id="LcwuGCR-S58AGxE-9b6Q-48" value="Duplicates need to be investigated further and must be removed. It&#39;s more likely that changes need to be made in ParksGIS." style="rounded=0;whiteSpace=wrap;html=1;fillColor=#1ba1e2;strokeColor=#006EAF;fontColor=#ffffff;" vertex="1" parent="1">
          <mxGeometry x="360" y="1170.8" width="109" height="147.5" as="geometry" />
        </mxCell>
        <mxCell id="LcwuGCR-S58AGxE-9b6Q-49" value="&lt;i&gt;Due to the complexity of these types of matches it&#39;s impossible to provide a prescriptive resolution. However, a resolution that removes duplicates must be implemented.&lt;/i&gt;" style="rounded=0;whiteSpace=wrap;html=1;" vertex="1" parent="1">
          <mxGeometry x="224.56" y="1170.8" width="109" height="169.2" as="geometry" />
        </mxCell>
        <mxCell id="LcwuGCR-S58AGxE-9b6Q-51" value="&lt;b&gt;End&lt;/b&gt;" style="text;html=1;strokeColor=none;fillColor=none;align=center;verticalAlign=middle;whiteSpace=wrap;rounded=0;" vertex="1" parent="1">
          <mxGeometry x="125.5" y="1320" width="40" height="20" as="geometry" />
        </mxCell>
        <mxCell id="LcwuGCR-S58AGxE-9b6Q-52" value="&lt;b&gt;End&lt;/b&gt;" style="text;html=1;strokeColor=none;fillColor=none;align=center;verticalAlign=middle;whiteSpace=wrap;rounded=0;" vertex="1" parent="1">
          <mxGeometry x="394.5" y="1318.3" width="40" height="20" as="geometry" />
        </mxCell>
        <mxCell id="LcwuGCR-S58AGxE-9b6Q-53" value="&lt;b&gt;End&lt;/b&gt;" style="text;html=1;strokeColor=none;fillColor=none;align=center;verticalAlign=middle;whiteSpace=wrap;rounded=0;" vertex="1" parent="1">
          <mxGeometry x="-280" y="660" width="40" height="20" as="geometry" />
        </mxCell>
      </root>
    </mxGraphModel>
  </diagram>
</mxfile>
